<svg width="209" height="123" viewBox="0 0 209 123" fill="none" xmlns="http://www.w3.org/2000/svg">
<path d="M25.1618 97.76H23.9078V85.296H16.3838V97.76H15.1298V84.194H25.1618V97.76ZM35.146 92.858C35.146 92.288 35.07 91.7497 34.918 91.243C34.7787 90.7363 34.5697 90.293 34.291 89.913C34.025 89.533 33.6957 89.2353 33.303 89.02C32.923 88.792 32.4987 88.678 32.03 88.678C31.498 88.678 31.023 88.7857 30.605 89.001C30.187 89.2163 29.8323 89.514 29.541 89.894C29.2623 90.274 29.047 90.7173 28.895 91.224C28.7557 91.7307 28.686 92.2753 28.686 92.858C28.686 93.39 28.7493 93.9093 28.876 94.416C29.0027 94.91 29.199 95.3533 29.465 95.746C29.731 96.126 30.073 96.4363 30.491 96.677C30.9217 96.9177 31.4347 97.038 32.03 97.038C32.4987 97.038 32.923 96.9303 33.303 96.715C33.6957 96.487 34.025 96.183 34.291 95.803C34.5697 95.423 34.7787 94.9797 34.918 94.473C35.07 93.9663 35.146 93.428 35.146 92.858ZM36.305 92.858C36.305 93.6687 36.2037 94.397 36.001 95.043C35.7983 95.6763 35.507 96.221 35.127 96.677C34.7597 97.1203 34.31 97.456 33.778 97.684C33.2587 97.9247 32.676 98.045 32.03 98.045C31.6373 98.045 31.2637 97.988 30.909 97.874C30.5543 97.7727 30.2313 97.6207 29.94 97.418C29.6487 97.228 29.3953 97.0063 29.18 96.753C28.9647 96.487 28.8 96.202 28.686 95.898V100.781H27.527V87.956H28.686V89.818C28.9013 89.21 29.294 88.7033 29.864 88.298C30.4467 87.88 31.1687 87.671 32.03 87.671C32.676 87.671 33.2587 87.7913 33.778 88.032C34.31 88.2727 34.7597 88.6147 35.127 89.058C35.507 89.5013 35.7983 90.046 36.001 90.692C36.2037 91.3253 36.305 92.0473 36.305 92.858ZM46.4851 92.858C46.4851 92.2373 46.4028 91.6737 46.2381 91.167C46.0861 90.6477 45.8645 90.2043 45.5731 89.837C45.2818 89.4697 44.9271 89.1847 44.5091 88.982C44.1038 88.7793 43.6541 88.678 43.1601 88.678C42.6661 88.678 42.2101 88.7793 41.7921 88.982C41.3868 89.1847 41.0385 89.4697 40.7471 89.837C40.4558 90.2043 40.2278 90.6477 40.0631 91.167C39.9111 91.6737 39.8351 92.2373 39.8351 92.858C39.8351 93.4787 39.9111 94.0487 40.0631 94.568C40.2278 95.0747 40.4558 95.5117 40.7471 95.879C41.0385 96.2463 41.3868 96.5313 41.7921 96.734C42.2101 96.9367 42.6661 97.038 43.1601 97.038C43.6541 97.038 44.1038 96.9367 44.5091 96.734C44.9271 96.5313 45.2818 96.2463 45.5731 95.879C45.8645 95.5117 46.0861 95.0747 46.2381 94.568C46.4028 94.0487 46.4851 93.4787 46.4851 92.858ZM47.6441 92.858C47.6441 93.618 47.5365 94.3147 47.3211 94.948C47.1185 95.5813 46.8208 96.1323 46.4281 96.601C46.0481 97.057 45.5795 97.4117 45.0221 97.665C44.4648 97.9183 43.8441 98.045 43.1601 98.045C42.4761 98.045 41.8555 97.9183 41.2981 97.665C40.7408 97.4117 40.2658 97.057 39.8731 96.601C39.4931 96.1323 39.1955 95.5813 38.9801 94.948C38.7775 94.3147 38.6761 93.618 38.6761 92.858C38.6761 92.098 38.7775 91.4013 38.9801 90.768C39.1955 90.1347 39.4931 89.59 39.8731 89.134C40.2658 88.6653 40.7408 88.3043 41.2981 88.051C41.8555 87.7977 42.4761 87.671 43.1601 87.671C43.8441 87.671 44.4648 87.7977 45.0221 88.051C45.5795 88.3043 46.0481 88.6653 46.4281 89.134C46.8208 89.59 47.1185 90.1347 47.3211 90.768C47.5365 91.4013 47.6441 92.098 47.6441 92.858ZM58.2803 94.91C58.2803 94.302 58.0713 93.846 57.6533 93.542C57.2353 93.238 56.4816 93.086 55.3923 93.086H51.6493V96.734H55.3733C56.3233 96.734 57.0453 96.5947 57.5393 96.316C58.0333 96.0247 58.2803 95.556 58.2803 94.91ZM57.7863 90.502C57.7863 90.274 57.7546 90.065 57.6913 89.875C57.6279 89.685 57.5076 89.5267 57.3303 89.4C57.1529 89.2607 56.9059 89.1593 56.5893 89.096C56.2853 89.02 55.8863 88.982 55.3923 88.982H51.6493V92.06H55.3733C55.8799 92.06 56.2853 92.022 56.5893 91.946C56.9059 91.87 57.1466 91.7623 57.3113 91.623C57.4886 91.4837 57.6089 91.319 57.6723 91.129C57.7356 90.939 57.7673 90.73 57.7673 90.502H57.7863ZM59.4393 94.891C59.4393 95.917 59.1289 96.6517 58.5083 97.095C57.8876 97.5383 56.8489 97.76 55.3923 97.76H50.4903V87.956H55.3733C56.6399 87.956 57.5519 88.1333 58.1093 88.488C58.6666 88.8427 58.9453 89.4697 58.9453 90.369C58.9453 90.901 58.8059 91.3633 58.5273 91.756C58.2613 92.1487 57.7926 92.3893 57.1213 92.478C57.7926 92.5413 58.3436 92.782 58.7743 93.2C59.2176 93.6053 59.4393 94.169 59.4393 94.891ZM69.4116 92.174C69.3989 91.7433 69.3166 91.319 69.1646 90.901C69.0253 90.4703 68.8226 90.0967 68.5566 89.78C68.2906 89.4507 67.9676 89.1847 67.5876 88.982C67.2203 88.7793 66.8023 88.678 66.3336 88.678C65.8649 88.678 65.4469 88.7793 65.0796 88.982C64.7249 89.172 64.4146 89.4317 64.1486 89.761C63.8953 90.0777 63.6926 90.445 63.5406 90.863C63.3886 91.281 63.2936 91.718 63.2556 92.174H69.4116ZM63.2556 93.181C63.2556 93.7257 63.3253 94.2323 63.4646 94.701C63.6039 95.1697 63.8066 95.5813 64.0726 95.936C64.3386 96.278 64.6616 96.5503 65.0416 96.753C65.4216 96.943 65.8586 97.038 66.3526 97.038C66.7706 97.038 67.1506 96.9747 67.4926 96.848C67.8346 96.7087 68.1323 96.525 68.3856 96.297C68.6389 96.069 68.8479 95.803 69.0126 95.499C69.1773 95.195 69.2976 94.872 69.3736 94.53H70.5326C70.2919 95.632 69.8233 96.4933 69.1266 97.114C68.4299 97.7347 67.5053 98.045 66.3526 98.045C65.7193 98.045 65.1366 97.9247 64.6046 97.684C64.0853 97.456 63.6356 97.1203 63.2556 96.677C62.8883 96.221 62.6033 95.6763 62.4006 95.043C62.1979 94.397 62.0966 93.6687 62.0966 92.858C62.0966 92.1613 62.1853 91.4963 62.3626 90.863C62.5399 90.2297 62.7996 89.6787 63.1416 89.21C63.4963 88.7413 63.9396 88.3677 64.4716 88.089C65.0036 87.8103 65.6243 87.671 66.3336 87.671C67.0936 87.671 67.7396 87.8167 68.2716 88.108C68.8163 88.3993 69.2533 88.7983 69.5826 89.305C69.9246 89.799 70.1716 90.3817 70.3236 91.053C70.4883 91.7243 70.5706 92.4337 70.5706 93.181H63.2556ZM80.7534 92.858C80.7534 92.288 80.6774 91.7497 80.5254 91.243C80.3861 90.7363 80.1771 90.293 79.8984 89.913C79.6324 89.533 79.3031 89.2353 78.9104 89.02C78.5304 88.792 78.1061 88.678 77.6374 88.678C77.1054 88.678 76.6304 88.7857 76.2124 89.001C75.7944 89.2163 75.4397 89.514 75.1484 89.894C74.8697 90.274 74.6544 90.7173 74.5024 91.224C74.3631 91.7307 74.2934 92.2753 74.2934 92.858C74.2934 93.39 74.3567 93.9093 74.4834 94.416C74.6101 94.91 74.8064 95.3533 75.0724 95.746C75.3384 96.126 75.6804 96.4363 76.0984 96.677C76.5291 96.9177 77.0421 97.038 77.6374 97.038C78.1061 97.038 78.5304 96.9303 78.9104 96.715C79.3031 96.487 79.6324 96.183 79.8984 95.803C80.1771 95.423 80.3861 94.9797 80.5254 94.473C80.6774 93.9663 80.7534 93.428 80.7534 92.858ZM81.9124 92.858C81.9124 93.6687 81.8111 94.397 81.6084 95.043C81.4057 95.6763 81.1144 96.221 80.7344 96.677C80.3671 97.1203 79.9174 97.456 79.3854 97.684C78.8661 97.9247 78.2834 98.045 77.6374 98.045C77.2447 98.045 76.8711 97.988 76.5164 97.874C76.1617 97.7727 75.8387 97.6207 75.5474 97.418C75.2561 97.228 75.0027 97.0063 74.7874 96.753C74.5721 96.487 74.4074 96.202 74.2934 95.898V100.781H73.1344V87.956H74.2934V89.818C74.5087 89.21 74.9014 88.7033 75.4714 88.298C76.0541 87.88 76.7761 87.671 77.6374 87.671C78.2834 87.671 78.8661 87.7913 79.3854 88.032C79.9174 88.2727 80.3671 88.6147 80.7344 89.058C81.1144 89.5013 81.4057 90.046 81.6084 90.692C81.8111 91.3253 81.9124 92.0473 81.9124 92.858ZM92.6056 97.76H91.2186L87.4756 92.402L85.5566 94.15V97.76H84.3976V87.956H85.5566V92.668L90.7056 87.956H92.3016L88.3496 91.585L92.6056 97.76ZM102.247 92.307C102.158 92.4463 102.019 92.5667 101.829 92.668C101.639 92.7693 101.443 92.839 101.24 92.877C100.518 93.0163 99.8785 93.1493 99.3212 93.276C98.7638 93.39 98.3015 93.5357 97.9342 93.713C97.5668 93.8903 97.2882 94.112 97.0982 94.378C96.9082 94.6313 96.8132 94.9607 96.8132 95.366C96.8132 95.936 97.0095 96.3667 97.4022 96.658C97.7948 96.9367 98.3205 97.076 98.9792 97.076C99.4478 97.076 99.8785 97.0063 100.271 96.867C100.676 96.715 101.018 96.506 101.297 96.24C101.588 95.974 101.816 95.651 101.981 95.271C102.146 94.8783 102.228 94.4413 102.228 93.96L102.247 92.307ZM104.47 97.684C104.331 97.7093 104.204 97.7283 104.09 97.741C103.989 97.7537 103.862 97.76 103.71 97.76C103.178 97.76 102.817 97.608 102.627 97.304C102.437 97 102.342 96.582 102.342 96.05C102.165 96.6327 101.778 97.1077 101.183 97.475C100.6 97.855 99.8215 98.045 98.8462 98.045C98.4028 98.045 97.9848 97.9943 97.5922 97.893C97.2122 97.7917 96.8765 97.6333 96.5852 97.418C96.2938 97.2027 96.0595 96.9303 95.8822 96.601C95.7175 96.259 95.6352 95.86 95.6352 95.404C95.6352 94.7707 95.7682 94.264 96.0342 93.884C96.3002 93.4913 96.6612 93.1747 97.1172 92.934C97.5858 92.6933 98.1305 92.5097 98.7512 92.383C99.3845 92.2437 100.068 92.1043 100.803 91.965C101.284 91.8763 101.645 91.737 101.886 91.547C102.127 91.357 102.247 91.0783 102.247 90.711C102.247 89.9763 102.013 89.457 101.544 89.153C101.088 88.8363 100.493 88.678 99.7582 88.678C99.0868 88.678 98.5042 88.8617 98.0102 89.229C97.5288 89.5837 97.2628 90.16 97.2122 90.958H96.0342C96.0595 90.4007 96.1735 89.9193 96.3762 89.514C96.5788 89.096 96.8512 88.754 97.1932 88.488C97.5352 88.2093 97.9342 88.0067 98.3902 87.88C98.8462 87.7407 99.3465 87.671 99.8912 87.671C100.36 87.671 100.803 87.7153 101.221 87.804C101.652 87.8927 102.025 88.0573 102.342 88.298C102.659 88.5387 102.912 88.8617 103.102 89.267C103.292 89.6723 103.387 90.1917 103.387 90.825V96.031C103.387 96.259 103.444 96.4427 103.558 96.582C103.672 96.7087 103.843 96.772 104.071 96.772C104.134 96.772 104.198 96.7657 104.261 96.753C104.337 96.7403 104.407 96.7213 104.47 96.696V97.684ZM109.34 96.658C109.505 96.658 109.587 96.6897 109.587 96.753C109.587 96.8037 109.575 96.867 109.549 96.943L108.295 100.344C108.245 100.445 108.194 100.509 108.143 100.534C108.105 100.572 108.042 100.591 107.953 100.591H107.155C106.991 100.591 106.927 100.502 106.965 100.325L107.858 96.981C107.884 96.905 107.922 96.8353 107.972 96.772C108.023 96.696 108.118 96.658 108.257 96.658H109.34ZM126.669 94.967C126.669 95.5117 126.542 95.9803 126.289 96.373C126.035 96.753 125.7 97.0633 125.282 97.304C124.864 97.5447 124.382 97.722 123.838 97.836C123.306 97.95 122.755 98.007 122.185 98.007C121.627 98.007 121.089 97.95 120.57 97.836C120.05 97.7347 119.588 97.551 119.183 97.285C118.79 97.019 118.473 96.6643 118.233 96.221C117.992 95.765 117.878 95.195 117.891 94.511H118.974C118.974 95.0303 119.062 95.4547 119.24 95.784C119.417 96.1133 119.658 96.373 119.962 96.563C120.266 96.753 120.608 96.886 120.988 96.962C121.368 97.038 121.76 97.076 122.166 97.076C122.584 97.076 122.995 97.0443 123.401 96.981C123.806 96.9177 124.167 96.8037 124.484 96.639C124.8 96.4743 125.054 96.259 125.244 95.993C125.434 95.7143 125.529 95.3723 125.529 94.967C125.529 94.625 125.446 94.3463 125.282 94.131C125.13 93.903 124.914 93.7257 124.636 93.599C124.357 93.4597 124.028 93.3647 123.648 93.314C123.28 93.2507 122.881 93.219 122.451 93.219H121.463V92.136H122.451C122.818 92.136 123.16 92.098 123.477 92.022C123.793 91.9333 124.066 91.813 124.294 91.661C124.534 91.509 124.718 91.3317 124.845 91.129C124.984 90.9263 125.054 90.6983 125.054 90.445C125.054 90.0903 124.965 89.799 124.788 89.571C124.623 89.3303 124.408 89.1467 124.142 89.02C123.876 88.8807 123.572 88.7857 123.23 88.735C122.888 88.6843 122.546 88.659 122.204 88.659C121.938 88.659 121.634 88.7033 121.292 88.792C120.962 88.8807 120.652 89.02 120.361 89.21C120.069 89.4 119.816 89.6533 119.601 89.97C119.398 90.274 119.29 90.6477 119.278 91.091H118.195C118.195 90.521 118.302 90.027 118.518 89.609C118.746 89.191 119.043 88.8427 119.411 88.564C119.778 88.2853 120.202 88.0763 120.684 87.937C121.165 87.7977 121.665 87.728 122.185 87.728C122.729 87.728 123.242 87.7787 123.724 87.88C124.218 87.9813 124.642 88.146 124.997 88.374C125.364 88.5893 125.649 88.868 125.852 89.21C126.067 89.552 126.175 89.9637 126.175 90.445C126.175 91.0023 126.029 91.471 125.738 91.851C125.459 92.231 124.959 92.4843 124.237 92.611C124.591 92.6617 124.914 92.7377 125.206 92.839C125.51 92.9403 125.769 93.086 125.985 93.276C126.2 93.4533 126.365 93.6813 126.479 93.96C126.605 94.2387 126.669 94.5743 126.669 94.967ZM136.369 92.307C136.281 92.4463 136.141 92.5667 135.951 92.668C135.761 92.7693 135.565 92.839 135.362 92.877C134.64 93.0163 134.001 93.1493 133.443 93.276C132.886 93.39 132.424 93.5357 132.056 93.713C131.689 93.8903 131.41 94.112 131.22 94.378C131.03 94.6313 130.935 94.9607 130.935 95.366C130.935 95.936 131.132 96.3667 131.524 96.658C131.917 96.9367 132.443 97.076 133.101 97.076C133.57 97.076 134.001 97.0063 134.393 96.867C134.799 96.715 135.141 96.506 135.419 96.24C135.711 95.974 135.939 95.651 136.103 95.271C136.268 94.8783 136.35 94.4413 136.35 93.96L136.369 92.307ZM138.592 97.684C138.453 97.7093 138.326 97.7283 138.212 97.741C138.111 97.7537 137.984 97.76 137.832 97.76C137.3 97.76 136.939 97.608 136.749 97.304C136.559 97 136.464 96.582 136.464 96.05C136.287 96.6327 135.901 97.1077 135.305 97.475C134.723 97.855 133.944 98.045 132.968 98.045C132.525 98.045 132.107 97.9943 131.714 97.893C131.334 97.7917 130.999 97.6333 130.707 97.418C130.416 97.2027 130.182 96.9303 130.004 96.601C129.84 96.259 129.757 95.86 129.757 95.404C129.757 94.7707 129.89 94.264 130.156 93.884C130.422 93.4913 130.783 93.1747 131.239 92.934C131.708 92.6933 132.253 92.5097 132.873 92.383C133.507 92.2437 134.191 92.1043 134.925 91.965C135.407 91.8763 135.768 91.737 136.008 91.547C136.249 91.357 136.369 91.0783 136.369 90.711C136.369 89.9763 136.135 89.457 135.666 89.153C135.21 88.8363 134.615 88.678 133.88 88.678C133.209 88.678 132.626 88.8617 132.132 89.229C131.651 89.5837 131.385 90.16 131.334 90.958H130.156C130.182 90.4007 130.296 89.9193 130.498 89.514C130.701 89.096 130.973 88.754 131.315 88.488C131.657 88.2093 132.056 88.0067 132.512 87.88C132.968 87.7407 133.469 87.671 134.013 87.671C134.482 87.671 134.925 87.7153 135.343 87.804C135.774 87.8927 136.148 88.0573 136.464 88.298C136.781 88.5387 137.034 88.8617 137.224 89.267C137.414 89.6723 137.509 90.1917 137.509 90.825V96.031C137.509 96.259 137.566 96.4427 137.68 96.582C137.794 96.7087 137.965 96.772 138.193 96.772C138.257 96.772 138.32 96.7657 138.383 96.753C138.459 96.7403 138.529 96.7213 138.592 96.696V97.684ZM152.943 97.76H151.784V89.647L147.623 97.76H146.445L142.284 89.647V97.76H141.125V87.956H142.702L147.034 96.392L151.366 87.956H152.943V97.76ZM163.113 92.174C163.1 91.7433 163.018 91.319 162.866 90.901C162.726 90.4703 162.524 90.0967 162.258 89.78C161.992 89.4507 161.669 89.1847 161.289 88.982C160.921 88.7793 160.503 88.678 160.035 88.678C159.566 88.678 159.148 88.7793 158.781 88.982C158.426 89.172 158.116 89.4317 157.85 89.761C157.596 90.0777 157.394 90.445 157.242 90.863C157.09 91.281 156.995 91.718 156.957 92.174H163.113ZM156.957 93.181C156.957 93.7257 157.026 94.2323 157.166 94.701C157.305 95.1697 157.508 95.5813 157.774 95.936C158.04 96.278 158.363 96.5503 158.743 96.753C159.123 96.943 159.56 97.038 160.054 97.038C160.472 97.038 160.852 96.9747 161.194 96.848C161.536 96.7087 161.833 96.525 162.087 96.297C162.34 96.069 162.549 95.803 162.714 95.499C162.878 95.195 162.999 94.872 163.075 94.53H164.234C163.993 95.632 163.524 96.4933 162.828 97.114C162.131 97.7347 161.206 98.045 160.054 98.045C159.42 98.045 158.838 97.9247 158.306 97.684C157.786 97.456 157.337 97.1203 156.957 96.677C156.589 96.221 156.304 95.6763 156.102 95.043C155.899 94.397 155.798 93.6687 155.798 92.858C155.798 92.1613 155.886 91.4963 156.064 90.863C156.241 90.2297 156.501 89.6787 156.843 89.21C157.197 88.7413 157.641 88.3677 158.173 88.089C158.705 87.8103 159.325 87.671 160.035 87.671C160.795 87.671 161.441 87.8167 161.973 88.108C162.517 88.3993 162.954 88.7983 163.284 89.305C163.626 89.799 163.873 90.3817 164.025 91.053C164.189 91.7243 164.272 92.4337 164.272 93.181H156.957ZM176.108 97.76H174.949V93.238H168.28V97.76H167.121V87.956H168.28V92.212H174.949V87.956H176.108V97.76ZM186.003 92.307C185.914 92.4463 185.775 92.5667 185.585 92.668C185.395 92.7693 185.199 92.839 184.996 92.877C184.274 93.0163 183.634 93.1493 183.077 93.276C182.52 93.39 182.057 93.5357 181.69 93.713C181.323 93.8903 181.044 94.112 180.854 94.378C180.664 94.6313 180.569 94.9607 180.569 95.366C180.569 95.936 180.765 96.3667 181.158 96.658C181.551 96.9367 182.076 97.076 182.735 97.076C183.204 97.076 183.634 97.0063 184.027 96.867C184.432 96.715 184.774 96.506 185.053 96.24C185.344 95.974 185.572 95.651 185.737 95.271C185.902 94.8783 185.984 94.4413 185.984 93.96L186.003 92.307ZM188.226 97.684C188.087 97.7093 187.96 97.7283 187.846 97.741C187.745 97.7537 187.618 97.76 187.466 97.76C186.934 97.76 186.573 97.608 186.383 97.304C186.193 97 186.098 96.582 186.098 96.05C185.921 96.6327 185.534 97.1077 184.939 97.475C184.356 97.855 183.577 98.045 182.602 98.045C182.159 98.045 181.741 97.9943 181.348 97.893C180.968 97.7917 180.632 97.6333 180.341 97.418C180.05 97.2027 179.815 96.9303 179.638 96.601C179.473 96.259 179.391 95.86 179.391 95.404C179.391 94.7707 179.524 94.264 179.79 93.884C180.056 93.4913 180.417 93.1747 180.873 92.934C181.342 92.6933 181.886 92.5097 182.507 92.383C183.14 92.2437 183.824 92.1043 184.559 91.965C185.04 91.8763 185.401 91.737 185.642 91.547C185.883 91.357 186.003 91.0783 186.003 90.711C186.003 89.9763 185.769 89.457 185.3 89.153C184.844 88.8363 184.249 88.678 183.514 88.678C182.843 88.678 182.26 88.8617 181.766 89.229C181.285 89.5837 181.019 90.16 180.968 90.958H179.79C179.815 90.4007 179.929 89.9193 180.132 89.514C180.335 89.096 180.607 88.754 180.949 88.488C181.291 88.2093 181.69 88.0067 182.146 87.88C182.602 87.7407 183.102 87.671 183.647 87.671C184.116 87.671 184.559 87.7153 184.977 87.804C185.408 87.8927 185.781 88.0573 186.098 88.298C186.415 88.5387 186.668 88.8617 186.858 89.267C187.048 89.6723 187.143 90.1917 187.143 90.825V96.031C187.143 96.259 187.2 96.4427 187.314 96.582C187.428 96.7087 187.599 96.772 187.827 96.772C187.89 96.772 187.954 96.7657 188.017 96.753C188.093 96.7403 188.163 96.7213 188.226 96.696V97.684ZM193.096 96.658C193.261 96.658 193.343 96.6897 193.343 96.753C193.343 96.8037 193.331 96.867 193.305 96.943L192.051 100.344C192.001 100.445 191.95 100.509 191.899 100.534C191.861 100.572 191.798 100.591 191.709 100.591H190.911C190.747 100.591 190.683 100.502 190.721 100.325L191.614 96.981C191.64 96.905 191.678 96.8353 191.728 96.772C191.779 96.696 191.874 96.658 192.013 96.658H193.096ZM10.9027 109.956L6.87466 121.052C6.67199 121.609 6.39966 122.034 6.05766 122.325C5.72833 122.629 5.25333 122.781 4.63266 122.781C4.40466 122.781 4.22099 122.768 4.08166 122.743C3.95499 122.73 3.83466 122.711 3.72066 122.686V121.679C4.03733 121.742 4.30333 121.774 4.51866 121.774C4.69599 121.774 4.84799 121.755 4.97466 121.717C5.11399 121.692 5.23433 121.628 5.33566 121.527C5.44966 121.438 5.55099 121.312 5.63966 121.147C5.74099 120.995 5.84233 120.786 5.94366 120.52L6.32366 119.551L2.48566 109.956H3.72066L6.85566 118.183L9.72466 109.956H10.9027ZM21.6458 116.435C21.4685 117.588 21.0378 118.474 20.3538 119.095C19.6698 119.728 18.7705 120.045 17.6558 120.045C16.9465 120.045 16.3132 119.918 15.7558 119.665C15.2112 119.412 14.7488 119.057 14.3688 118.601C14.0015 118.145 13.7165 117.6 13.5138 116.967C13.3238 116.334 13.2288 115.631 13.2288 114.858C13.2288 114.123 13.3238 113.439 13.5138 112.806C13.7165 112.173 14.0015 111.628 14.3688 111.172C14.7488 110.703 15.2112 110.336 15.7558 110.07C16.3005 109.804 16.9275 109.671 17.6368 109.671C18.1435 109.671 18.6185 109.753 19.0618 109.918C19.5178 110.07 19.9168 110.298 20.2588 110.602C20.6008 110.893 20.8858 111.254 21.1138 111.685C21.3418 112.103 21.4938 112.578 21.5698 113.11H20.4108C20.2968 112.401 19.9928 111.818 19.4988 111.362C19.0048 110.906 18.3842 110.678 17.6368 110.678C17.0922 110.678 16.6172 110.792 16.2118 111.02C15.8065 111.235 15.4645 111.533 15.1858 111.913C14.9198 112.293 14.7172 112.736 14.5778 113.243C14.4512 113.75 14.3878 114.288 14.3878 114.858C14.3878 115.466 14.4575 116.03 14.5968 116.549C14.7488 117.056 14.9642 117.499 15.2428 117.879C15.5342 118.246 15.8762 118.531 16.2688 118.734C16.6742 118.937 17.1365 119.038 17.6558 119.038C18.0105 119.038 18.3462 118.981 18.6628 118.867C18.9922 118.74 19.2772 118.563 19.5178 118.335C19.7712 118.107 19.9802 117.835 20.1448 117.518C20.3095 117.189 20.4235 116.828 20.4868 116.435H21.6458ZM33.054 110.982H29.083V119.76H27.905V110.982H23.953V109.956H33.054V110.982ZM42.566 114.307C42.4773 114.446 42.338 114.567 42.148 114.668C41.958 114.769 41.7617 114.839 41.559 114.877C40.837 115.016 40.1973 115.149 39.64 115.276C39.0827 115.39 38.6203 115.536 38.253 115.713C37.8857 115.89 37.607 116.112 37.417 116.378C37.227 116.631 37.132 116.961 37.132 117.366C37.132 117.936 37.3283 118.367 37.721 118.658C38.1137 118.937 38.6393 119.076 39.298 119.076C39.7667 119.076 40.1973 119.006 40.59 118.867C40.9953 118.715 41.3373 118.506 41.616 118.24C41.9073 117.974 42.1353 117.651 42.3 117.271C42.4647 116.878 42.547 116.441 42.547 115.96L42.566 114.307ZM44.789 119.684C44.6497 119.709 44.523 119.728 44.409 119.741C44.3077 119.754 44.181 119.76 44.029 119.76C43.497 119.76 43.136 119.608 42.946 119.304C42.756 119 42.661 118.582 42.661 118.05C42.4837 118.633 42.0973 119.108 41.502 119.475C40.9193 119.855 40.1403 120.045 39.165 120.045C38.7217 120.045 38.3037 119.994 37.911 119.893C37.531 119.792 37.1953 119.633 36.904 119.418C36.6127 119.203 36.3783 118.93 36.201 118.601C36.0363 118.259 35.954 117.86 35.954 117.404C35.954 116.771 36.087 116.264 36.353 115.884C36.619 115.491 36.98 115.175 37.436 114.934C37.9047 114.693 38.4493 114.51 39.07 114.383C39.7033 114.244 40.3873 114.104 41.122 113.965C41.6033 113.876 41.9643 113.737 42.205 113.547C42.4457 113.357 42.566 113.078 42.566 112.711C42.566 111.976 42.3317 111.457 41.863 111.153C41.407 110.836 40.8117 110.678 40.077 110.678C39.4057 110.678 38.823 110.862 38.329 111.229C37.8477 111.584 37.5817 112.16 37.531 112.958H36.353C36.3783 112.401 36.4923 111.919 36.695 111.514C36.8977 111.096 37.17 110.754 37.512 110.488C37.854 110.209 38.253 110.007 38.709 109.88C39.165 109.741 39.6653 109.671 40.21 109.671C40.6787 109.671 41.122 109.715 41.54 109.804C41.9707 109.893 42.3443 110.057 42.661 110.298C42.9777 110.539 43.231 110.862 43.421 111.267C43.611 111.672 43.706 112.192 43.706 112.825V118.031C43.706 118.259 43.763 118.443 43.877 118.582C43.991 118.709 44.162 118.772 44.39 118.772C44.4533 118.772 44.5167 118.766 44.58 118.753C44.656 118.74 44.7257 118.721 44.789 118.696V119.684ZM56.3092 119.76H55.1502V115.238H48.4812V119.76H47.3222V109.956H48.4812V114.212H55.1502V109.956H56.3092V119.76ZM66.7747 114.858C66.7747 114.237 66.6924 113.674 66.5277 113.167C66.3757 112.648 66.154 112.204 65.8627 111.837C65.5714 111.47 65.2167 111.185 64.7987 110.982C64.3934 110.779 63.9437 110.678 63.4497 110.678C62.9557 110.678 62.4997 110.779 62.0817 110.982C61.6764 111.185 61.328 111.47 61.0367 111.837C60.7454 112.204 60.5174 112.648 60.3527 113.167C60.2007 113.674 60.1247 114.237 60.1247 114.858C60.1247 115.479 60.2007 116.049 60.3527 116.568C60.5174 117.075 60.7454 117.512 61.0367 117.879C61.328 118.246 61.6764 118.531 62.0817 118.734C62.4997 118.937 62.9557 119.038 63.4497 119.038C63.9437 119.038 64.3934 118.937 64.7987 118.734C65.2167 118.531 65.5714 118.246 65.8627 117.879C66.154 117.512 66.3757 117.075 66.5277 116.568C66.6924 116.049 66.7747 115.479 66.7747 114.858ZM67.9337 114.858C67.9337 115.618 67.826 116.315 67.6107 116.948C67.408 117.581 67.1104 118.132 66.7177 118.601C66.3377 119.057 65.869 119.412 65.3117 119.665C64.7544 119.918 64.1337 120.045 63.4497 120.045C62.7657 120.045 62.145 119.918 61.5877 119.665C61.0304 119.412 60.5554 119.057 60.1627 118.601C59.7827 118.132 59.485 117.581 59.2697 116.948C59.067 116.315 58.9657 115.618 58.9657 114.858C58.9657 114.098 59.067 113.401 59.2697 112.768C59.485 112.135 59.7827 111.59 60.1627 111.134C60.5554 110.665 61.0304 110.304 61.5877 110.051C62.145 109.798 62.7657 109.671 63.4497 109.671C64.1337 109.671 64.7544 109.798 65.3117 110.051C65.869 110.304 66.3377 110.665 66.7177 111.134C67.1104 111.59 67.408 112.135 67.6107 112.768C67.826 113.401 67.9337 114.098 67.9337 114.858ZM78.5698 116.91C78.5698 116.302 78.3608 115.846 77.9428 115.542C77.5248 115.238 76.7712 115.086 75.6818 115.086H71.9388V118.734H75.6628C76.6128 118.734 77.3348 118.595 77.8288 118.316C78.3228 118.025 78.5698 117.556 78.5698 116.91ZM78.0758 112.502C78.0758 112.274 78.0442 112.065 77.9808 111.875C77.9175 111.685 77.7972 111.527 77.6198 111.4C77.4425 111.261 77.1955 111.159 76.8788 111.096C76.5748 111.02 76.1758 110.982 75.6818 110.982H71.9388V114.06H75.6628C76.1695 114.06 76.5748 114.022 76.8788 113.946C77.1955 113.87 77.4362 113.762 77.6008 113.623C77.7782 113.484 77.8985 113.319 77.9618 113.129C78.0252 112.939 78.0568 112.73 78.0568 112.502H78.0758ZM79.7288 116.891C79.7288 117.917 79.4185 118.652 78.7978 119.095C78.1772 119.538 77.1385 119.76 75.6818 119.76H70.7798V109.956H75.6628C76.9295 109.956 77.8415 110.133 78.3988 110.488C78.9562 110.843 79.2348 111.47 79.2348 112.369C79.2348 112.901 79.0955 113.363 78.8168 113.756C78.5508 114.149 78.0822 114.389 77.4108 114.478C78.0822 114.541 78.6332 114.782 79.0638 115.2C79.5072 115.605 79.7288 116.169 79.7288 116.891ZM90.5182 119.76H89.1312L85.3882 114.402L83.4692 116.15V119.76H82.3102V109.956H83.4692V114.668L88.6182 109.956H90.2142L86.2622 113.585L90.5182 119.76ZM100.16 114.307C100.071 114.446 99.9318 114.567 99.7418 114.668C99.5518 114.769 99.3554 114.839 99.1528 114.877C98.4308 115.016 97.7911 115.149 97.2338 115.276C96.6764 115.39 96.2141 115.536 95.8468 115.713C95.4794 115.89 95.2008 116.112 95.0108 116.378C94.8208 116.631 94.7258 116.961 94.7258 117.366C94.7258 117.936 94.9221 118.367 95.3148 118.658C95.7074 118.937 96.2331 119.076 96.8918 119.076C97.3604 119.076 97.7911 119.006 98.1838 118.867C98.5891 118.715 98.9311 118.506 99.2098 118.24C99.5011 117.974 99.7291 117.651 99.8938 117.271C100.058 116.878 100.141 116.441 100.141 115.96L100.16 114.307ZM102.383 119.684C102.243 119.709 102.117 119.728 102.003 119.741C101.901 119.754 101.775 119.76 101.623 119.76C101.091 119.76 100.73 119.608 100.54 119.304C100.35 119 100.255 118.582 100.255 118.05C100.077 118.633 99.6911 119.108 99.0958 119.475C98.5131 119.855 97.7341 120.045 96.7588 120.045C96.3154 120.045 95.8974 119.994 95.5048 119.893C95.1248 119.792 94.7891 119.633 94.4978 119.418C94.2064 119.203 93.9721 118.93 93.7948 118.601C93.6301 118.259 93.5478 117.86 93.5478 117.404C93.5478 116.771 93.6808 116.264 93.9468 115.884C94.2128 115.491 94.5738 115.175 95.0298 114.934C95.4984 114.693 96.0431 114.51 96.6638 114.383C97.2971 114.244 97.9811 114.104 98.7158 113.965C99.1971 113.876 99.5581 113.737 99.7988 113.547C100.039 113.357 100.16 113.078 100.16 112.711C100.16 111.976 99.9254 111.457 99.4568 111.153C99.0008 110.836 98.4054 110.678 97.6708 110.678C96.9994 110.678 96.4168 110.862 95.9228 111.229C95.4414 111.584 95.1754 112.16 95.1248 112.958H93.9468C93.9721 112.401 94.0861 111.919 94.2888 111.514C94.4914 111.096 94.7638 110.754 95.1058 110.488C95.4478 110.209 95.8468 110.007 96.3028 109.88C96.7588 109.741 97.2591 109.671 97.8038 109.671C98.2724 109.671 98.7158 109.715 99.1338 109.804C99.5644 109.893 99.9381 110.057 100.255 110.298C100.571 110.539 100.825 110.862 101.015 111.267C101.205 111.672 101.3 112.192 101.3 112.825V118.031C101.3 118.259 101.357 118.443 101.471 118.582C101.585 118.709 101.756 118.772 101.984 118.772C102.047 118.772 102.11 118.766 102.174 118.753C102.25 118.74 102.319 118.721 102.383 118.696V119.684ZM118.297 116.435C118.12 117.588 117.689 118.474 117.005 119.095C116.321 119.728 115.422 120.045 114.307 120.045C113.598 120.045 112.965 119.918 112.407 119.665C111.863 119.412 111.4 119.057 111.02 118.601C110.653 118.145 110.368 117.6 110.165 116.967C109.975 116.334 109.88 115.631 109.88 114.858C109.88 114.123 109.975 113.439 110.165 112.806C110.368 112.173 110.653 111.628 111.02 111.172C111.4 110.703 111.863 110.336 112.407 110.07C112.952 109.804 113.579 109.671 114.288 109.671C114.795 109.671 115.27 109.753 115.713 109.918C116.169 110.07 116.568 110.298 116.91 110.602C117.252 110.893 117.537 111.254 117.765 111.685C117.993 112.103 118.145 112.578 118.221 113.11H117.062C116.948 112.401 116.644 111.818 116.15 111.362C115.656 110.906 115.036 110.678 114.288 110.678C113.744 110.678 113.269 110.792 112.863 111.02C112.458 111.235 112.116 111.533 111.837 111.913C111.571 112.293 111.369 112.736 111.229 113.243C111.103 113.75 111.039 114.288 111.039 114.858C111.039 115.466 111.109 116.03 111.248 116.549C111.4 117.056 111.616 117.499 111.894 117.879C112.186 118.246 112.528 118.531 112.92 118.734C113.326 118.937 113.788 119.038 114.307 119.038C114.662 119.038 114.998 118.981 115.314 118.867C115.644 118.74 115.929 118.563 116.169 118.335C116.423 118.107 116.632 117.835 116.796 117.518C116.961 117.189 117.075 116.828 117.138 116.435H118.297ZM128.451 119.76H127.387V115.637C127.286 115.916 127.128 116.175 126.912 116.416C126.71 116.657 126.469 116.866 126.19 117.043C125.912 117.22 125.608 117.36 125.278 117.461C124.962 117.562 124.639 117.613 124.309 117.613C123.663 117.613 123.119 117.524 122.675 117.347C122.245 117.17 121.896 116.916 121.63 116.587C121.364 116.245 121.174 115.846 121.06 115.39C120.946 114.921 120.889 114.402 120.889 113.832V109.956H121.953V113.642C121.953 114.06 121.998 114.453 122.086 114.82C122.175 115.175 122.314 115.485 122.504 115.751C122.694 116.017 122.941 116.226 123.245 116.378C123.562 116.53 123.942 116.606 124.385 116.606C124.841 116.606 125.253 116.524 125.62 116.359C125.988 116.182 126.298 115.947 126.551 115.656C126.817 115.352 127.02 114.997 127.159 114.592C127.299 114.174 127.368 113.724 127.368 113.243V109.956H128.451V119.76ZM138.519 114.174C138.506 113.743 138.424 113.319 138.272 112.901C138.132 112.47 137.93 112.097 137.664 111.78C137.398 111.451 137.075 111.185 136.695 110.982C136.327 110.779 135.909 110.678 135.441 110.678C134.972 110.678 134.554 110.779 134.187 110.982C133.832 111.172 133.522 111.432 133.256 111.761C133.002 112.078 132.8 112.445 132.648 112.863C132.496 113.281 132.401 113.718 132.363 114.174H138.519ZM132.363 115.181C132.363 115.726 132.432 116.232 132.572 116.701C132.711 117.17 132.914 117.581 133.18 117.936C133.446 118.278 133.769 118.55 134.149 118.753C134.529 118.943 134.966 119.038 135.46 119.038C135.878 119.038 136.258 118.975 136.6 118.848C136.942 118.709 137.239 118.525 137.493 118.297C137.746 118.069 137.955 117.803 138.12 117.499C138.284 117.195 138.405 116.872 138.481 116.53H139.64C139.399 117.632 138.93 118.493 138.234 119.114C137.537 119.735 136.612 120.045 135.46 120.045C134.826 120.045 134.244 119.925 133.712 119.684C133.192 119.456 132.743 119.12 132.363 118.677C131.995 118.221 131.71 117.676 131.508 117.043C131.305 116.397 131.204 115.669 131.204 114.858C131.204 114.161 131.292 113.496 131.47 112.863C131.647 112.23 131.907 111.679 132.249 111.21C132.603 110.741 133.047 110.368 133.579 110.089C134.111 109.81 134.731 109.671 135.441 109.671C136.201 109.671 136.847 109.817 137.379 110.108C137.923 110.399 138.36 110.798 138.69 111.305C139.032 111.799 139.279 112.382 139.431 113.053C139.595 113.724 139.678 114.434 139.678 115.181H132.363ZM151.247 110.982H147.276V119.76H146.098V110.982H142.146V109.956H151.247V110.982ZM161.367 119.76H160.303V115.637C160.202 115.916 160.044 116.175 159.828 116.416C159.626 116.657 159.385 116.866 159.106 117.043C158.828 117.22 158.524 117.36 158.194 117.461C157.878 117.562 157.555 117.613 157.225 117.613C156.579 117.613 156.035 117.524 155.591 117.347C155.161 117.17 154.812 116.916 154.546 116.587C154.28 116.245 154.09 115.846 153.976 115.39C153.862 114.921 153.805 114.402 153.805 113.832V109.956H154.869V113.642C154.869 114.06 154.914 114.453 155.002 114.82C155.091 115.175 155.23 115.485 155.42 115.751C155.61 116.017 155.857 116.226 156.161 116.378C156.478 116.53 156.858 116.606 157.301 116.606C157.757 116.606 158.169 116.524 158.536 116.359C158.904 116.182 159.214 115.947 159.467 115.656C159.733 115.352 159.936 114.997 160.075 114.592C160.215 114.174 160.284 113.724 160.284 113.243V109.956H161.367V119.76ZM172.385 119.76H171.226V112.597L165.279 118.62V119.76H164.12V109.956H165.279V117.119L171.226 111.096V109.956H172.385V119.76ZM183.18 119.76H181.793L178.05 114.402L176.131 116.15V119.76H174.972V109.956H176.131V114.668L181.28 109.956H182.876L178.924 113.585L183.18 119.76ZM193.392 114.858C193.392 114.237 193.31 113.674 193.145 113.167C192.993 112.648 192.771 112.204 192.48 111.837C192.189 111.47 191.834 111.185 191.416 110.982C191.011 110.779 190.561 110.678 190.067 110.678C189.573 110.678 189.117 110.779 188.699 110.982C188.294 111.185 187.945 111.47 187.654 111.837C187.363 112.204 187.135 112.648 186.97 113.167C186.818 113.674 186.742 114.237 186.742 114.858C186.742 115.479 186.818 116.049 186.97 116.568C187.135 117.075 187.363 117.512 187.654 117.879C187.945 118.246 188.294 118.531 188.699 118.734C189.117 118.937 189.573 119.038 190.067 119.038C190.561 119.038 191.011 118.937 191.416 118.734C191.834 118.531 192.189 118.246 192.48 117.879C192.771 117.512 192.993 117.075 193.145 116.568C193.31 116.049 193.392 115.479 193.392 114.858ZM194.551 114.858C194.551 115.618 194.443 116.315 194.228 116.948C194.025 117.581 193.728 118.132 193.335 118.601C192.955 119.057 192.486 119.412 191.929 119.665C191.372 119.918 190.751 120.045 190.067 120.045C189.383 120.045 188.762 119.918 188.205 119.665C187.648 119.412 187.173 119.057 186.78 118.601C186.4 118.132 186.102 117.581 185.887 116.948C185.684 116.315 185.583 115.618 185.583 114.858C185.583 114.098 185.684 113.401 185.887 112.768C186.102 112.135 186.4 111.59 186.78 111.134C187.173 110.665 187.648 110.304 188.205 110.051C188.762 109.798 189.383 109.671 190.067 109.671C190.751 109.671 191.372 109.798 191.929 110.051C192.486 110.304 192.955 110.665 193.335 111.134C193.728 111.59 194.025 112.135 194.228 112.768C194.443 113.401 194.551 114.098 194.551 114.858ZM205.187 116.91C205.187 116.302 204.978 115.846 204.56 115.542C204.142 115.238 203.388 115.086 202.299 115.086H198.556V118.734H202.28C203.23 118.734 203.952 118.595 204.446 118.316C204.94 118.025 205.187 117.556 205.187 116.91ZM204.693 112.502C204.693 112.274 204.661 112.065 204.598 111.875C204.535 111.685 204.414 111.527 204.237 111.4C204.06 111.261 203.813 111.159 203.496 111.096C203.192 111.02 202.793 110.982 202.299 110.982H198.556V114.06H202.28C202.787 114.06 203.192 114.022 203.496 113.946C203.813 113.87 204.053 113.762 204.218 113.623C204.395 113.484 204.516 113.319 204.579 113.129C204.642 112.939 204.674 112.73 204.674 112.502H204.693ZM206.346 116.891C206.346 117.917 206.036 118.652 205.415 119.095C204.794 119.538 203.756 119.76 202.299 119.76H197.397V109.956H202.28C203.547 109.956 204.459 110.133 205.016 110.488C205.573 110.843 205.852 111.47 205.852 112.369C205.852 112.901 205.713 113.363 205.434 113.756C205.168 114.149 204.699 114.389 204.028 114.478C204.699 114.541 205.25 114.782 205.681 115.2C206.124 115.605 206.346 116.169 206.346 116.891Z" fill="black"/>
<path d="M129.325 20.3897H72.2338V16.3117H129.325V20.3897ZM108.935 32.6235H72.2338V36.7014H108.935V32.6235ZM141.559 0V36.7014H137.481V4.07793H64.0779V57.0911H100.779V61.169H60V0H141.559ZM150 47.4549L147.117 44.5718L123.208 68.4807L111.533 56.8056L108.65 59.6887L123.208 74.247L150 47.4549Z" fill="black"/>
</svg>
