<svg width="209" height="128" viewBox="0 0 209 128" fill="none" xmlns="http://www.w3.org/2000/svg">
<path d="M100.721 36.4841L89.7042 25.4677L92.8911 22.2809L103.908 33.2974L105.721 31.484L94.1533 19.9158L97.4833 16.5859C97.5098 16.5595 97.5343 16.5319 97.5581 16.5033C97.5844 16.4811 97.6103 16.4586 97.6352 16.4339L103.658 10.4111C104.152 9.91687 104.16 9.1175 103.674 8.61421L103.606 8.54283C103.549 8.48287 103.492 8.42314 103.433 8.36425C100.422 5.35354 96.5137 3.55603 92.9777 3.55603C90.593 3.55603 88.5415 4.34696 87.0451 5.8435C87.0125 5.87594 86.9825 5.9103 86.9539 5.94572C86.9342 5.96296 86.9143 5.97972 86.8957 5.9983L73.2353 19.6589C72.7346 20.1598 72.7346 20.9717 73.2353 21.4727L75.2533 23.4904L73.5869 25.1567L71.569 23.1386C71.3284 22.8982 71.0022 22.7629 70.6621 22.7629C70.322 22.7629 69.9959 22.8982 69.7553 23.1386L65.572 27.3223C65.0712 27.8232 65.0712 28.6351 65.572 29.1357L74.346 37.9097C74.5866 38.1502 74.9128 38.2855 75.2529 38.2855C75.593 38.2855 75.9193 38.1502 76.1597 37.9097L80.3426 33.7262C80.8434 33.2255 80.8434 32.4137 80.3426 31.9127L78.3251 29.895L79.9914 28.2287L82.009 30.2464C82.2595 30.4969 82.5876 30.6218 82.9159 30.6218C83.244 30.6218 83.5723 30.4965 83.8226 30.2464L87.3392 26.7298L98.9074 38.298L100.721 36.4841ZM92.9777 6.12087C95.5916 6.12087 98.5035 7.37807 100.921 9.52074L96.7285 13.7134L89.8881 6.87292C90.7549 6.37794 91.8021 6.12087 92.9777 6.12087ZM75.2529 35.1892L68.2925 28.2289L70.6621 25.8591L77.6222 32.8193L75.2529 35.1892ZM76.604 27.9889L75.4929 26.8778L77.0666 25.3041L78.1777 26.4151L76.604 27.9889ZM82.9159 27.5259L75.9558 20.5656L87.8026 8.7187L94.763 15.6792L82.9159 27.5259Z" fill="#333333"/>
<path d="M143.4 69.1621L117.013 42.776L115.2 44.5894L140.68 70.0692L137.493 73.2563L112.013 47.7761L110.199 49.5899L136.586 75.9768C136.827 76.2172 137.153 76.3524 137.493 76.3524C137.833 76.3524 138.16 76.2172 138.4 75.9768L143.4 70.9759C143.901 70.475 143.901 69.6631 143.4 69.1621Z" fill="#333333"/>
<path d="M144.131 11.7455C143.986 11.3289 143.636 11.0166 143.206 10.9182C142.776 10.8201 142.326 10.9496 142.014 11.2617L136.832 16.4428L131.974 11.5844L137.156 6.40351C137.468 6.09147 137.597 5.64102 137.499 5.21093C137.401 4.78076 137.088 4.43133 136.672 4.28587C135.38 3.8348 134.028 3.60596 132.655 3.60596C129.408 3.60596 126.355 4.87036 124.06 7.16613C121.763 9.46213 120.499 12.5148 120.499 15.762C120.499 17.3328 120.797 18.8574 121.363 20.2737L88.6408 52.9953C87.2247 52.4299 85.7004 52.1315 84.1298 52.1315C80.8828 52.1315 77.83 53.3961 75.5339 55.6922C72.2538 58.9722 71.1231 63.923 72.6535 68.3044C72.7989 68.7209 73.1484 69.0333 73.5785 69.1317C74.0084 69.2297 74.4589 69.1006 74.7711 68.7886L79.9524 63.607L84.8109 68.4647L79.6293 73.6463C79.3173 73.9583 79.1876 74.4088 79.2858 74.8389C79.3842 75.269 79.6966 75.6182 80.1131 75.7639C81.4048 76.2151 82.7561 76.4437 84.1296 76.4441C84.13 76.4441 84.13 76.4441 84.1303 76.4441C87.3766 76.4441 90.4293 75.1792 92.7254 72.8831C96.2614 69.3468 97.1577 64.1563 95.4171 59.7799L128.144 27.054C129.56 27.6196 131.084 27.9181 132.655 27.9181C132.655 27.9181 132.655 27.9181 132.655 27.9181C135.902 27.9181 138.955 26.6539 141.251 24.3578C144.531 21.0777 145.661 16.1269 144.131 11.7455ZM90.9116 71.0697C89.1 72.8813 86.6917 73.8793 84.1303 73.8793C84.1303 73.8793 84.1298 73.8793 84.1296 73.8793C83.7778 73.8789 83.4277 73.8599 83.0806 73.8224L87.5312 69.3718C87.7718 69.131 87.9069 68.805 87.9069 68.4648C87.9069 68.1249 87.7718 67.7985 87.5312 67.5581L80.8592 60.8866C80.3586 60.386 79.5465 60.386 79.0456 60.8866L74.5979 65.3342C74.2941 62.4838 75.2794 59.5741 77.3477 57.5055C79.1594 55.6939 81.5678 54.6963 84.1298 54.6963C86.6916 54.6963 89.1 55.6939 90.9115 57.5059C94.651 61.2451 94.651 67.3301 90.9116 71.0697ZM94.3015 57.2683L91.1484 54.1149L122.371 22.8932L125.524 26.0463L94.3015 57.2683ZM139.437 22.5444C137.625 24.3556 135.217 25.3532 132.655 25.3532C130.093 25.3532 127.684 24.3556 125.873 22.544C124.061 20.7324 123.063 18.3239 123.063 15.7619C123.063 13.2 124.061 10.7915 125.873 8.97978C127.684 7.16831 130.093 6.17071 132.655 6.17071C133.007 6.17071 133.357 6.18978 133.704 6.2276L129.254 10.6777C129.013 10.9181 128.878 11.2444 128.878 11.5844C128.878 11.9247 129.013 12.2506 129.254 12.4911L135.925 19.1629C136.426 19.6639 137.238 19.6639 137.739 19.1633L142.186 14.7156C142.49 17.566 141.505 20.4758 139.437 22.5444Z" fill="#333333"/>
<path d="M29.4271 102.96C29.4271 102.048 29.1231 101.37 28.5151 100.927C27.9197 100.471 27.0711 100.243 25.9691 100.243H21.6561V105.658H25.9501C26.4187 105.658 26.8621 105.614 27.2801 105.525C27.7107 105.424 28.0844 105.265 28.4011 105.05C28.7177 104.835 28.9647 104.556 29.1421 104.214C29.3321 103.872 29.4271 103.454 29.4271 102.96ZM28.9331 96.728C28.9331 95.1067 27.9451 94.296 25.9691 94.296H21.6561V99.141H25.9501C26.4567 99.141 26.8937 99.0777 27.2611 98.951C27.6284 98.8117 27.9324 98.6343 28.1731 98.419C28.4264 98.191 28.6101 97.9313 28.7241 97.64C28.8507 97.3487 28.9141 97.0447 28.9141 96.728H28.9331ZM30.6811 102.941C30.6811 103.6 30.5734 104.17 30.3581 104.651C30.1427 105.132 29.8261 105.531 29.4081 105.848C29.0027 106.152 28.5087 106.38 27.9261 106.532C27.3434 106.684 26.6911 106.76 25.9691 106.76H20.4021V93.194H25.9501C26.5327 93.194 27.0774 93.251 27.5841 93.365C28.1034 93.4663 28.5531 93.65 28.9331 93.916C29.3257 94.1693 29.6297 94.5113 29.8451 94.942C30.0731 95.3727 30.1871 95.9173 30.1871 96.576C30.1871 97.3107 29.9844 97.9503 29.5791 98.495C29.1864 99.027 28.6227 99.3943 27.8881 99.597C28.7367 99.711 29.4144 100.072 29.9211 100.68C30.4277 101.275 30.6811 102.029 30.6811 102.941ZM39.9409 103.91C39.9409 103.606 39.9029 103.34 39.8269 103.112C39.7509 102.884 39.6116 102.694 39.4089 102.542C39.2062 102.39 38.9276 102.276 38.5729 102.2C38.2309 102.124 37.7876 102.086 37.2429 102.086H34.6589V105.734H37.2429C38.1929 105.734 38.8769 105.595 39.2949 105.316C39.7256 105.025 39.9409 104.556 39.9409 103.91ZM41.0999 103.891C41.0999 104.385 41.0366 104.816 40.9099 105.183C40.7832 105.538 40.5679 105.829 40.2639 106.057C39.9599 106.298 39.5609 106.475 39.0669 106.589C38.5729 106.703 37.9649 106.76 37.2429 106.76H33.4999V96.956H34.6589V101.06H37.2429C37.9649 101.06 38.5666 101.117 39.0479 101.231C39.5419 101.345 39.9409 101.522 40.2449 101.763C40.5489 101.991 40.7642 102.282 40.8909 102.637C41.0302 102.992 41.0999 103.41 41.0999 103.891ZM43.7599 106.76H42.6009V96.956H43.7599V106.76ZM55.4278 103.967C55.4278 104.512 55.3012 104.98 55.0478 105.373C54.7945 105.753 54.4588 106.063 54.0408 106.304C53.6228 106.545 53.1415 106.722 52.5968 106.836C52.0648 106.95 51.5138 107.007 50.9438 107.007C50.3865 107.007 49.8482 106.95 49.3288 106.836C48.8095 106.735 48.3472 106.551 47.9418 106.285C47.5492 106.019 47.2325 105.664 46.9918 105.221C46.7512 104.765 46.6372 104.195 46.6498 103.511H47.7328C47.7328 104.03 47.8215 104.455 47.9988 104.784C48.1762 105.113 48.4168 105.373 48.7208 105.563C49.0248 105.753 49.3668 105.886 49.7468 105.962C50.1268 106.038 50.5195 106.076 50.9248 106.076C51.3428 106.076 51.7545 106.044 52.1598 105.981C52.5652 105.918 52.9262 105.804 53.2428 105.639C53.5595 105.474 53.8128 105.259 54.0028 104.993C54.1928 104.714 54.2878 104.372 54.2878 103.967C54.2878 103.625 54.2055 103.346 54.0408 103.131C53.8888 102.903 53.6735 102.726 53.3948 102.599C53.1162 102.46 52.7868 102.365 52.4068 102.314C52.0395 102.251 51.6405 102.219 51.2098 102.219H50.2218V101.136H51.2098C51.5772 101.136 51.9192 101.098 52.2358 101.022C52.5525 100.933 52.8248 100.813 53.0528 100.661C53.2935 100.509 53.4772 100.332 53.6038 100.129C53.7432 99.9263 53.8128 99.6983 53.8128 99.445C53.8128 99.0903 53.7242 98.799 53.5468 98.571C53.3822 98.3303 53.1668 98.1467 52.9008 98.02C52.6348 97.8807 52.3308 97.7857 51.9888 97.735C51.6468 97.6843 51.3048 97.659 50.9628 97.659C50.6968 97.659 50.3928 97.7033 50.0508 97.792C49.7215 97.8807 49.4112 98.02 49.1198 98.21C48.8285 98.4 48.5752 98.6533 48.3598 98.97C48.1572 99.274 48.0495 99.6477 48.0368 100.091H46.9538C46.9538 99.521 47.0615 99.027 47.2768 98.609C47.5048 98.191 47.8025 97.8427 48.1698 97.564C48.5372 97.2853 48.9615 97.0763 49.4428 96.937C49.9242 96.7977 50.4245 96.728 50.9438 96.728C51.4885 96.728 52.0015 96.7787 52.4828 96.88C52.9768 96.9813 53.4012 97.146 53.7558 97.374C54.1232 97.5893 54.4082 97.868 54.6108 98.21C54.8262 98.552 54.9338 98.9637 54.9338 99.445C54.9338 100.002 54.7882 100.471 54.4968 100.851C54.2182 101.231 53.7178 101.484 52.9958 101.611C53.3505 101.662 53.6735 101.738 53.9648 101.839C54.2688 101.94 54.5285 102.086 54.7438 102.276C54.9592 102.453 55.1238 102.681 55.2378 102.96C55.3645 103.239 55.4278 103.574 55.4278 103.967ZM66.2495 103.91C66.2495 103.302 66.0405 102.846 65.6225 102.542C65.2045 102.238 64.4508 102.086 63.3615 102.086H59.6185V105.734H63.3425C64.2925 105.734 65.0145 105.595 65.5085 105.316C66.0025 105.025 66.2495 104.556 66.2495 103.91ZM65.7555 99.502C65.7555 99.274 65.7238 99.065 65.6605 98.875C65.5972 98.685 65.4768 98.5267 65.2995 98.4C65.1222 98.2607 64.8752 98.1593 64.5585 98.096C64.2545 98.02 63.8555 97.982 63.3615 97.982H59.6185V101.06H63.3425C63.8492 101.06 64.2545 101.022 64.5585 100.946C64.8752 100.87 65.1158 100.762 65.2805 100.623C65.4578 100.484 65.5782 100.319 65.6415 100.129C65.7048 99.939 65.7365 99.73 65.7365 99.502H65.7555ZM67.4085 103.891C67.4085 104.917 67.0982 105.652 66.4775 106.095C65.8568 106.538 64.8182 106.76 63.3615 106.76H58.4595V96.956H63.3425C64.6092 96.956 65.5212 97.1333 66.0785 97.488C66.6358 97.8427 66.9145 98.4697 66.9145 99.369C66.9145 99.901 66.7752 100.363 66.4965 100.756C66.2305 101.149 65.7618 101.389 65.0905 101.478C65.7618 101.541 66.3128 101.782 66.7435 102.2C67.1868 102.605 67.4085 103.169 67.4085 103.891ZM77.1148 101.307C77.0262 101.446 76.8868 101.567 76.6968 101.668C76.5068 101.769 76.3105 101.839 76.1078 101.877C75.3858 102.016 74.7462 102.149 74.1888 102.276C73.6315 102.39 73.1692 102.536 72.8018 102.713C72.4345 102.89 72.1558 103.112 71.9658 103.378C71.7758 103.631 71.6808 103.961 71.6808 104.366C71.6808 104.936 71.8772 105.367 72.2698 105.658C72.6625 105.937 73.1882 106.076 73.8468 106.076C74.3155 106.076 74.7462 106.006 75.1388 105.867C75.5442 105.715 75.8862 105.506 76.1648 105.24C76.4562 104.974 76.6842 104.651 76.8488 104.271C77.0135 103.878 77.0958 103.441 77.0958 102.96L77.1148 101.307ZM79.3378 106.684C79.1985 106.709 79.0718 106.728 78.9578 106.741C78.8565 106.754 78.7298 106.76 78.5778 106.76C78.0458 106.76 77.6848 106.608 77.4948 106.304C77.3048 106 77.2098 105.582 77.2098 105.05C77.0325 105.633 76.6462 106.108 76.0508 106.475C75.4682 106.855 74.6892 107.045 73.7138 107.045C73.2705 107.045 72.8525 106.994 72.4598 106.893C72.0798 106.792 71.7442 106.633 71.4528 106.418C71.1615 106.203 70.9272 105.93 70.7498 105.601C70.5852 105.259 70.5028 104.86 70.5028 104.404C70.5028 103.771 70.6358 103.264 70.9018 102.884C71.1678 102.491 71.5288 102.175 71.9848 101.934C72.4535 101.693 72.9982 101.51 73.6188 101.383C74.2522 101.244 74.9362 101.104 75.6708 100.965C76.1522 100.876 76.5132 100.737 76.7538 100.547C76.9945 100.357 77.1148 100.078 77.1148 99.711C77.1148 98.9763 76.8805 98.457 76.4118 98.153C75.9558 97.8363 75.3605 97.678 74.6258 97.678C73.9545 97.678 73.3718 97.8617 72.8778 98.229C72.3965 98.5837 72.1305 99.16 72.0798 99.958H70.9018C70.9272 99.4007 71.0412 98.9193 71.2438 98.514C71.4465 98.096 71.7188 97.754 72.0608 97.488C72.4028 97.2093 72.8018 97.0067 73.2578 96.88C73.7138 96.7407 74.2142 96.671 74.7588 96.671C75.2275 96.671 75.6708 96.7153 76.0888 96.804C76.5195 96.8927 76.8932 97.0573 77.2098 97.298C77.5265 97.5387 77.7798 97.8617 77.9698 98.267C78.1598 98.6723 78.2548 99.1917 78.2548 99.825V105.031C78.2548 105.259 78.3118 105.443 78.4258 105.582C78.5398 105.709 78.7108 105.772 78.9388 105.772C79.0022 105.772 79.0655 105.766 79.1288 105.753C79.2048 105.74 79.2745 105.721 79.3378 105.696V106.684ZM90.5921 97.982H86.6211V106.76H85.4431V97.982H81.4911V96.956H90.5921V97.982ZM99.9331 103.91C99.9331 103.606 99.8951 103.34 99.8191 103.112C99.7558 102.884 99.6228 102.694 99.4201 102.542C99.2301 102.39 98.9578 102.276 98.6031 102.2C98.2611 102.124 97.8178 102.086 97.2731 102.086H94.1191V105.734H97.2541C98.2041 105.734 98.8818 105.595 99.2871 105.316C99.7051 105.025 99.9141 104.556 99.9141 103.91H99.9331ZM101.092 103.891C101.092 104.385 101.029 104.816 100.902 105.183C100.775 105.538 100.566 105.829 100.275 106.057C99.9838 106.298 99.5911 106.475 99.0971 106.589C98.6031 106.703 97.9951 106.76 97.2731 106.76H92.9601V96.956H94.1191V101.06H97.2541C98.6601 101.06 99.6481 101.294 100.218 101.763C100.801 102.232 101.092 102.941 101.092 103.891ZM120.983 106.76H119.824V98.647L115.663 106.76H114.485L110.324 98.647V106.76H109.165V96.956H110.742L115.074 105.392L119.406 96.956H120.983V106.76ZM130.886 101.307C130.798 101.446 130.658 101.567 130.468 101.668C130.278 101.769 130.082 101.839 129.879 101.877C129.157 102.016 128.518 102.149 127.96 102.276C127.403 102.39 126.941 102.536 126.573 102.713C126.206 102.89 125.927 103.112 125.737 103.378C125.547 103.631 125.452 103.961 125.452 104.366C125.452 104.936 125.649 105.367 126.041 105.658C126.434 105.937 126.96 106.076 127.618 106.076C128.087 106.076 128.518 106.006 128.91 105.867C129.316 105.715 129.658 105.506 129.936 105.24C130.228 104.974 130.456 104.651 130.62 104.271C130.785 103.878 130.867 103.441 130.867 102.96L130.886 101.307ZM133.109 106.684C132.97 106.709 132.843 106.728 132.729 106.741C132.628 106.754 132.501 106.76 132.349 106.76C131.817 106.76 131.456 106.608 131.266 106.304C131.076 106 130.981 105.582 130.981 105.05C130.804 105.633 130.418 106.108 129.822 106.475C129.24 106.855 128.461 107.045 127.485 107.045C127.042 107.045 126.624 106.994 126.231 106.893C125.851 106.792 125.516 106.633 125.224 106.418C124.933 106.203 124.699 105.93 124.521 105.601C124.357 105.259 124.274 104.86 124.274 104.404C124.274 103.771 124.407 103.264 124.673 102.884C124.939 102.491 125.3 102.175 125.756 101.934C126.225 101.693 126.77 101.51 127.39 101.383C128.024 101.244 128.708 101.104 129.442 100.965C129.924 100.876 130.285 100.737 130.525 100.547C130.766 100.357 130.886 100.078 130.886 99.711C130.886 98.9763 130.652 98.457 130.183 98.153C129.727 97.8363 129.132 97.678 128.397 97.678C127.726 97.678 127.143 97.8617 126.649 98.229C126.168 98.5837 125.902 99.16 125.851 99.958H124.673C124.699 99.4007 124.813 98.9193 125.015 98.514C125.218 98.096 125.49 97.754 125.832 97.488C126.174 97.2093 126.573 97.0067 127.029 96.88C127.485 96.7407 127.986 96.671 128.53 96.671C128.999 96.671 129.442 96.7153 129.86 96.804C130.291 96.8927 130.665 97.0573 130.981 97.298C131.298 97.5387 131.551 97.8617 131.741 98.267C131.931 98.6723 132.026 99.1917 132.026 99.825V105.031C132.026 105.259 132.083 105.443 132.197 105.582C132.311 105.709 132.482 105.772 132.71 105.772C132.774 105.772 132.837 105.766 132.9 105.753C132.976 105.74 133.046 105.721 133.109 105.696V106.684ZM143.699 103.435C143.521 104.588 143.091 105.474 142.407 106.095C141.723 106.728 140.823 107.045 139.709 107.045C138.999 107.045 138.366 106.918 137.809 106.665C137.264 106.412 136.802 106.057 136.422 105.601C136.054 105.145 135.769 104.6 135.567 103.967C135.377 103.334 135.282 102.631 135.282 101.858C135.282 101.123 135.377 100.439 135.567 99.806C135.769 99.1727 136.054 98.628 136.422 98.172C136.802 97.7033 137.264 97.336 137.809 97.07C138.353 96.804 138.98 96.671 139.69 96.671C140.196 96.671 140.671 96.7533 141.115 96.918C141.571 97.07 141.97 97.298 142.312 97.602C142.654 97.8933 142.939 98.2543 143.167 98.685C143.395 99.103 143.547 99.578 143.623 100.11H142.464C142.35 99.4007 142.046 98.818 141.552 98.362C141.058 97.906 140.437 97.678 139.69 97.678C139.145 97.678 138.67 97.792 138.265 98.02C137.859 98.2353 137.517 98.533 137.239 98.913C136.973 99.293 136.77 99.7363 136.631 100.243C136.504 100.75 136.441 101.288 136.441 101.858C136.441 102.466 136.51 103.03 136.65 103.549C136.802 104.056 137.017 104.499 137.296 104.879C137.587 105.246 137.929 105.531 138.322 105.734C138.727 105.937 139.189 106.038 139.709 106.038C140.063 106.038 140.399 105.981 140.716 105.867C141.045 105.74 141.33 105.563 141.571 105.335C141.824 105.107 142.033 104.835 142.198 104.518C142.362 104.189 142.476 103.828 142.54 103.435H143.699ZM155.107 97.982H151.136V106.76H149.958V97.982H146.006V96.956H155.107V97.982ZM164.885 101.174C164.872 100.743 164.79 100.319 164.638 99.901C164.498 99.4703 164.296 99.0967 164.03 98.78C163.764 98.4507 163.441 98.1847 163.061 97.982C162.693 97.7793 162.275 97.678 161.807 97.678C161.338 97.678 160.92 97.7793 160.553 97.982C160.198 98.172 159.888 98.4317 159.622 98.761C159.368 99.0777 159.166 99.445 159.014 99.863C158.862 100.281 158.767 100.718 158.729 101.174H164.885ZM158.729 102.181C158.729 102.726 158.798 103.232 158.938 103.701C159.077 104.17 159.28 104.581 159.546 104.936C159.812 105.278 160.135 105.55 160.515 105.753C160.895 105.943 161.332 106.038 161.826 106.038C162.244 106.038 162.624 105.975 162.966 105.848C163.308 105.709 163.605 105.525 163.859 105.297C164.112 105.069 164.321 104.803 164.486 104.499C164.65 104.195 164.771 103.872 164.847 103.53H166.006C165.765 104.632 165.296 105.493 164.6 106.114C163.903 106.735 162.978 107.045 161.826 107.045C161.192 107.045 160.61 106.925 160.078 106.684C159.558 106.456 159.109 106.12 158.729 105.677C158.361 105.221 158.076 104.676 157.874 104.043C157.671 103.397 157.57 102.669 157.57 101.858C157.57 101.161 157.658 100.496 157.836 99.863C158.013 99.2297 158.273 98.6787 158.615 98.21C158.969 97.7413 159.413 97.3677 159.945 97.089C160.477 96.8103 161.097 96.671 161.807 96.671C162.567 96.671 163.213 96.8167 163.745 97.108C164.289 97.3993 164.726 97.7983 165.056 98.305C165.398 98.799 165.645 99.3817 165.797 100.053C165.961 100.724 166.044 101.434 166.044 102.181H158.729ZM176.227 101.858C176.227 101.288 176.151 100.75 175.999 100.243C175.859 99.7363 175.65 99.293 175.372 98.913C175.106 98.533 174.776 98.2353 174.384 98.02C174.004 97.792 173.579 97.678 173.111 97.678C172.579 97.678 172.104 97.7857 171.686 98.001C171.268 98.2163 170.913 98.514 170.622 98.894C170.343 99.274 170.128 99.7173 169.976 100.224C169.836 100.731 169.767 101.275 169.767 101.858C169.767 102.39 169.83 102.909 169.957 103.416C170.083 103.91 170.28 104.353 170.546 104.746C170.812 105.126 171.154 105.436 171.572 105.677C172.002 105.918 172.515 106.038 173.111 106.038C173.579 106.038 174.004 105.93 174.384 105.715C174.776 105.487 175.106 105.183 175.372 104.803C175.65 104.423 175.859 103.98 175.999 103.473C176.151 102.966 176.227 102.428 176.227 101.858ZM177.386 101.858C177.386 102.669 177.284 103.397 177.082 104.043C176.879 104.676 176.588 105.221 176.208 105.677C175.84 106.12 175.391 106.456 174.859 106.684C174.339 106.925 173.757 107.045 173.111 107.045C172.718 107.045 172.344 106.988 171.99 106.874C171.635 106.773 171.312 106.621 171.021 106.418C170.729 106.228 170.476 106.006 170.261 105.753C170.045 105.487 169.881 105.202 169.767 104.898V109.781H168.608V96.956H169.767V98.818C169.982 98.21 170.375 97.7033 170.945 97.298C171.527 96.88 172.249 96.671 173.111 96.671C173.757 96.671 174.339 96.7913 174.859 97.032C175.391 97.2727 175.84 97.6147 176.208 98.058C176.588 98.5013 176.879 99.046 177.082 99.692C177.284 100.325 177.386 101.047 177.386 101.858ZM186.996 101.307C186.907 101.446 186.768 101.567 186.578 101.668C186.388 101.769 186.191 101.839 185.989 101.877C185.267 102.016 184.627 102.149 184.07 102.276C183.512 102.39 183.05 102.536 182.683 102.713C182.315 102.89 182.037 103.112 181.847 103.378C181.657 103.631 181.562 103.961 181.562 104.366C181.562 104.936 181.758 105.367 182.151 105.658C182.543 105.937 183.069 106.076 183.728 106.076C184.196 106.076 184.627 106.006 185.02 105.867C185.425 105.715 185.767 105.506 186.046 105.24C186.337 104.974 186.565 104.651 186.73 104.271C186.894 103.878 186.977 103.441 186.977 102.96L186.996 101.307ZM189.219 106.684C189.079 106.709 188.953 106.728 188.839 106.741C188.737 106.754 188.611 106.76 188.459 106.76C187.927 106.76 187.566 106.608 187.376 106.304C187.186 106 187.091 105.582 187.091 105.05C186.913 105.633 186.527 106.108 185.932 106.475C185.349 106.855 184.57 107.045 183.595 107.045C183.151 107.045 182.733 106.994 182.341 106.893C181.961 106.792 181.625 106.633 181.334 106.418C181.042 106.203 180.808 105.93 180.631 105.601C180.466 105.259 180.384 104.86 180.384 104.404C180.384 103.771 180.517 103.264 180.783 102.884C181.049 102.491 181.41 102.175 181.866 101.934C182.334 101.693 182.879 101.51 183.5 101.383C184.133 101.244 184.817 101.104 185.552 100.965C186.033 100.876 186.394 100.737 186.635 100.547C186.875 100.357 186.996 100.078 186.996 99.711C186.996 98.9763 186.761 98.457 186.293 98.153C185.837 97.8363 185.241 97.678 184.507 97.678C183.835 97.678 183.253 97.8617 182.759 98.229C182.277 98.5837 182.011 99.16 181.961 99.958H180.783C180.808 99.4007 180.922 98.9193 181.125 98.514C181.327 98.096 181.6 97.754 181.942 97.488C182.284 97.2093 182.683 97.0067 183.139 96.88C183.595 96.7407 184.095 96.671 184.64 96.671C185.108 96.671 185.552 96.7153 185.97 96.804C186.4 96.8927 186.774 97.0573 187.091 97.298C187.407 97.5387 187.661 97.8617 187.851 98.267C188.041 98.6723 188.136 99.1917 188.136 99.825V105.031C188.136 105.259 188.193 105.443 188.307 105.582C188.421 105.709 188.592 105.772 188.82 105.772C188.883 105.772 188.946 105.766 189.01 105.753C189.086 105.74 189.155 105.721 189.219 105.696V106.684Z" fill="black"/>
</svg>
