<svg width="80" height="80" viewBox="0 0 80 80" fill="none" xmlns="http://www.w3.org/2000/svg">
<path d="M35.721 36.4841L24.7042 25.4677L27.8911 22.2809L38.9078 33.2974L40.7215 31.484L29.1533 19.9158L32.4833 16.5859C32.5098 16.5595 32.5343 16.5319 32.5581 16.5033C32.5844 16.4811 32.6103 16.4586 32.6352 16.4339L38.658 10.4111C39.1525 9.91687 39.1598 9.1175 38.6742 8.61421L38.6059 8.54283C38.5488 8.48287 38.4916 8.42314 38.4329 8.36425C35.4221 5.35354 31.5137 3.55603 27.9777 3.55603C25.593 3.55603 23.5415 4.34696 22.0451 5.8435C22.0125 5.87594 21.9825 5.9103 21.9539 5.94572C21.9342 5.96296 21.9143 5.97972 21.8957 5.9983L8.23534 19.6589C7.73459 20.1598 7.73459 20.9717 8.23534 21.4727L10.2533 23.4904L8.5869 25.1567L6.56899 23.1386C6.32837 22.8982 6.00223 22.7629 5.6621 22.7629C5.32201 22.7629 4.99588 22.8982 4.75526 23.1386L0.572011 27.3223C0.0712112 27.8232 0.0712112 28.6351 0.572011 29.1357L9.34601 37.9097C9.58663 38.1502 9.91277 38.2855 10.2529 38.2855C10.593 38.2855 10.9193 38.1502 11.1597 37.9097L15.3426 33.7262C15.8434 33.2255 15.8434 32.4137 15.3426 31.9127L13.3251 29.895L14.9914 28.2287L17.009 30.2464C17.2595 30.4969 17.5876 30.6218 17.9159 30.6218C18.244 30.6218 18.5723 30.4965 18.8226 30.2464L22.3392 26.7298L33.9074 38.298L35.721 36.4841ZM27.9777 6.12087C30.5916 6.12087 33.5035 7.37807 35.9214 9.52074L31.7285 13.7134L24.8881 6.87292C25.7549 6.37794 26.8021 6.12087 27.9777 6.12087ZM10.2529 35.1892L3.29246 28.2289L5.6621 25.8591L12.6222 32.8193L10.2529 35.1892ZM11.604 27.9889L10.4929 26.8778L12.0666 25.3041L13.1777 26.4151L11.604 27.9889ZM17.9159 27.5259L10.9558 20.5656L22.8026 8.7187L29.763 15.6792L17.9159 27.5259Z" fill="#333333"/>
<path d="M78.3999 69.1621L52.0134 42.7759L50.2 44.5893L75.6798 70.0691L72.4931 73.2562L47.0129 47.7761L45.1995 49.5899L71.5863 75.9767C71.8268 76.2171 72.1531 76.3524 72.493 76.3524C72.8333 76.3524 73.1596 76.2171 73.4001 75.9767L78.4002 70.9758C78.9008 70.475 78.9008 69.6631 78.3999 69.1621Z" fill="#333333"/>
<path d="M79.1309 11.7455C78.9856 11.3289 78.636 11.0166 78.2059 10.9182C77.7761 10.8201 77.3256 10.9496 77.0137 11.2617L71.8321 16.4428L66.974 11.5844L72.1556 6.40351C72.4676 6.09147 72.5975 5.64102 72.4991 5.21093C72.4007 4.78076 72.0883 4.43133 71.6718 4.28587C70.3798 3.8348 69.0283 3.60596 67.655 3.60596C64.4078 3.60596 61.3553 4.87036 59.0596 7.16613C56.7631 9.46213 55.4985 12.5148 55.4985 15.762C55.4985 17.3328 55.7973 18.8574 56.3626 20.2737L23.6408 52.9953C22.2247 52.4299 20.7004 52.1315 19.1298 52.1315C15.8828 52.1315 12.83 53.3961 10.5339 55.6922C7.25382 58.9722 6.12311 63.923 7.65351 68.3044C7.79893 68.7209 8.14836 69.0333 8.57849 69.1317C9.0084 69.2297 9.45889 69.1006 9.77107 68.7886L14.9524 63.607L19.8109 68.4647L14.6293 73.6463C14.3173 73.9583 14.1876 74.4088 14.2858 74.8389C14.3842 75.269 14.6966 75.6182 15.1131 75.7639C16.4048 76.2151 17.7561 76.4437 19.1296 76.4441C19.13 76.4441 19.13 76.4441 19.1303 76.4441C22.3766 76.4441 25.4293 75.1792 27.7254 72.8831C31.2614 69.3468 32.1577 64.1563 30.4171 59.7799L63.1436 27.054C64.5599 27.6196 66.0842 27.9181 67.655 27.9181C67.6554 27.9181 67.655 27.9181 67.6554 27.9181C70.9019 27.9181 73.9548 26.6539 76.2505 24.3578C79.5306 21.0777 80.6613 16.1269 79.1309 11.7455ZM25.9116 71.0697C24.1 72.8813 21.6917 73.8793 19.1303 73.8793C19.1303 73.8793 19.1298 73.8793 19.1296 73.8793C18.7778 73.8789 18.4277 73.8599 18.0806 73.8224L22.5312 69.3718C22.7718 69.131 22.9069 68.805 22.9069 68.4648C22.9069 68.1249 22.7718 67.7985 22.5312 67.5581L15.8592 60.8866C15.3586 60.386 14.5465 60.386 14.0456 60.8866L9.59791 65.3342C9.29413 62.4838 10.2794 59.5741 12.3477 57.5055C14.1594 55.6939 16.5678 54.6963 19.1298 54.6963C21.6916 54.6963 24.1 55.6939 25.9115 57.5059C29.651 61.2451 29.651 67.3301 25.9116 71.0697ZM29.3015 57.2683L26.1484 54.1149L57.3706 22.8932L60.5241 26.0463L29.3015 57.2683ZM74.437 22.5444C72.6254 24.3556 70.217 25.3532 67.655 25.3532C65.093 25.3532 62.6842 24.3556 60.8726 22.544C59.0613 20.7324 58.0634 18.3239 58.0634 15.7619C58.0634 13.2 59.0613 10.7915 60.873 8.97978C62.6842 7.16831 65.093 6.17071 67.655 6.17071C68.0071 6.17071 68.3571 6.18978 68.7041 6.2276L64.2536 10.6777C64.0131 10.9181 63.8779 11.2444 63.8779 11.5844C63.8779 11.9247 64.0131 12.2506 64.2536 12.4911L70.9251 19.1629C71.426 19.6639 72.2383 19.6639 72.7388 19.1633L77.1865 14.7156C77.4903 17.566 76.5052 20.4758 74.437 22.5444Z" fill="#333333"/>
</svg>
